<svg width="453" height="471" viewBox="0 0 453 471" fill="none" xmlns="http://www.w3.org/2000/svg">
<rect width="112.136" height="89.7844" rx="30" transform="matrix(0.694109 -0.71987 0.694109 0.71987 0 80.7236)" fill="#FFACAC"/>
<rect width="98.7223" height="361.982" rx="20" transform="matrix(0.694109 -0.71987 0.694109 0.71987 64.5029 138.438)" fill="black"/>
<rect width="21.1258" height="361.982" rx="10.5629" transform="matrix(0.694109 -0.71987 0.694109 0.71987 64.6738 138.591)" fill="#FFE601"/>
<rect width="21.1258" height="362.294" rx="10.5629" transform="matrix(0.694109 -0.71987 0.694109 0.71987 90.5957 110.88)" fill="#FFE601"/>
<rect width="21.1258" height="361.982" rx="10.5629" transform="matrix(0.694109 -0.71987 0.694109 0.71987 118.113 82.7559)" fill="#FFE601"/>
<path d="M418.606 435.029L316.115 399.253L384.31 328.115L418.606 435.029Z" fill="#FFE3B8"/>
<path d="M418.276 435.514L366.563 416.418L400.859 381.882L418.276 435.514Z" fill="black"/>
</svg>
