<svg width="1757" height="618" viewBox="0 0 1757 618" fill="none" xmlns="http://www.w3.org/2000/svg">
<rect x="2.41345" y="-2.47148" width="418.196" height="356.46" rx="17.5" transform="matrix(-0.0345606 -0.999403 0.999942 0.0108114 19.5942 453.911)" fill="#FFB1AC" stroke="#FFB1AC" stroke-width="5"/>
<rect x="-0.520304" y="-0.502158" width="1165.74" height="427.006" transform="matrix(-0.999987 -0.00514214 -0.0406208 -0.999175 1356.81 463.535)" fill="#FFE300" stroke="#FFE300"/>
<path d="M1752.48 251.17L1369.76 464.13L1354.1 38.2492L1752.48 251.17Z" fill="#FFFCE4" stroke="#FFFCE4"/>
<path d="M1755.33 252.47L1534.09 372.728L1523.62 128.168L1755.33 252.47Z" fill="#5D5D5D" stroke="#5E5E5E"/>
<path d="M427.309 251.508C430.669 251.508 439.021 251.22 442.285 251.22C447.181 251.22 452.077 251.412 456.973 251.412C466.381 251.412 473.869 250.26 478.573 246.996C482.605 244.212 485.197 239.796 485.197 233.94C485.197 228.468 483.277 225.012 479.725 222.804C476.173 220.596 471.277 219.636 464.557 218.964V218.292C468.397 217.62 471.853 216.852 474.445 215.604C478.189 213.972 481.837 210.324 481.837 203.988C481.837 199.956 480.685 196.404 477.709 194.196C474.541 191.7 471.373 190.644 460.333 190.644C455.341 190.644 446.797 190.932 442.189 190.932C437.005 190.932 431.245 190.644 427.309 190.644L427.405 193.716C433.453 194.004 434.797 194.58 434.893 196.212C435.181 198.996 435.181 201.78 435.181 208.692V230.388C435.181 237.588 434.893 243.252 434.701 245.652C434.605 247.764 433.261 248.148 427.309 248.436V251.508ZM452.557 206.388C452.557 201.3 452.749 198.132 452.941 195.636C452.941 194.58 453.037 194.004 455.917 194.004C459.181 194.004 461.389 195.444 462.445 197.556C463.501 199.668 463.885 202.068 463.885 205.524C463.885 214.932 460.909 217.524 455.917 217.524C454.477 217.524 453.517 217.524 452.557 217.428V206.388ZM452.557 220.884C453.613 220.692 454.573 220.596 455.917 220.596C459.373 220.596 462.349 221.556 463.885 223.86C465.421 225.972 466.093 229.14 466.093 233.46C466.093 238.356 465.229 242.1 463.789 244.308C462.253 246.804 459.757 248.148 455.917 248.148C453.517 248.148 452.941 247.284 452.941 246.516C452.653 244.308 452.557 240.18 452.557 233.364V220.884ZM538.688 240.084C537.824 243.828 536.192 246.324 534.848 246.324C533.792 246.324 533.12 245.844 533.12 243.06C533.12 237.3 533.12 222.228 533.12 219.828C533.12 218.196 532.64 216.564 531.776 215.316C530.144 212.82 525.824 208.884 515.264 208.884C502.592 208.884 494.144 214.932 494.144 220.5C494.144 224.628 497.504 226.068 501.152 226.068C502.976 226.068 505.472 225.396 506.816 224.34C507.68 223.668 508.16 222.612 507.968 221.46C507.776 220.404 507.68 219.348 507.68 218.292C507.68 214.26 509.408 212.052 513.056 212.052C516.224 212.052 517.664 214.74 517.76 219.636V223.476C512.672 226.452 503.84 228.852 497.408 231.348C494.144 232.692 491.936 235.38 491.936 240.18C491.936 247.764 496.544 252.564 504.512 252.564C509.216 252.564 513.632 250.164 517.856 245.94C519.104 250.26 522.272 252.564 528.128 252.564C535.328 252.564 540.032 249.3 541.76 241.428L538.688 240.084ZM517.664 237.396C517.664 239.412 517.472 241.044 517.088 242.004C516.608 243.06 515.648 245.076 513.248 245.076C509.696 245.076 508.256 241.044 508.256 237.492C508.256 233.268 509.6 231.732 511.712 230.292C513.632 229.14 516.032 227.892 517.76 226.932L517.664 237.396ZM582.939 237.012C580.347 243.828 576.987 246.708 571.803 246.708C567.579 246.708 564.891 244.692 563.067 240.468C561.819 237.684 561.339 233.172 561.339 229.236C561.339 219.156 563.835 212.148 568.251 212.148C571.227 212.148 572.667 214.356 572.667 218.676C572.667 220.212 572.379 221.268 572.091 222.612C571.899 223.86 572.283 225.012 573.435 225.78C574.395 226.356 576.123 226.644 577.275 226.644C580.635 226.644 585.435 225.012 585.435 219.732C585.435 212.82 578.139 208.884 568.539 208.884C552.411 208.884 544.251 218.388 544.251 231.444C544.251 236.628 545.307 241.812 548.187 245.46C552.027 250.164 557.595 252.564 566.715 252.564C576.603 252.564 582.555 248.34 586.011 238.548L582.939 237.012ZM589.974 191.892L592.758 191.988C594.006 191.988 594.774 192.276 594.774 193.332C594.87 198.228 594.87 204.084 594.87 210.516V230.868C594.87 239.796 594.774 243.828 594.582 245.844C594.39 247.476 593.718 248.436 589.302 248.436V251.508C592.374 251.508 595.638 251.22 602.838 251.22C608.694 251.22 612.918 251.508 616.278 251.508V248.436C611.574 248.244 611.19 247.668 610.998 245.172C610.806 240.852 610.806 237.684 610.806 230.868C611.478 230.772 611.862 231.54 612.918 233.556C614.838 237.396 620.022 248.244 621.75 252.564C625.974 251.796 634.422 251.508 643.35 251.508L643.446 248.436L641.334 248.34C639.798 248.244 638.262 247.764 637.206 246.42C633.75 241.716 625.206 225.3 623.67 222.036C626.166 219.156 628.662 216.468 631.254 214.548C632.886 213.3 634.806 213.012 639.798 212.34V209.46C633.078 209.844 626.262 210.132 619.638 210.132V213.108L623.382 213.492C624.918 213.684 624.726 214.068 624.246 215.028C621.078 220.404 613.974 227.7 610.902 228.564V208.308C610.902 199.86 611.094 192.276 611.286 187.092C606.87 188.052 597.654 188.532 590.07 188.82L589.974 191.892ZM698.342 205.812C698.342 200.82 698.438 196.596 698.534 194.196C705.254 194.004 707.27 195.156 708.71 197.652C709.958 199.764 711.974 203.604 713.126 210.708L716.102 209.844C715.718 200.052 716.87 191.508 716.966 190.068C712.358 190.932 705.734 190.932 694.79 190.932H684.614C675.59 190.932 667.718 190.644 664.262 190.068C663.974 194.196 663.206 205.14 662.246 210.9L665.126 211.38C666.374 207.54 667.718 203.124 670.118 198.996C672.134 195.444 673.67 194.196 680.87 194.196C680.966 196.404 680.966 200.628 680.966 206.388V229.236C680.966 238.74 680.774 242.004 680.582 245.172C680.486 247.092 679.334 247.572 677.222 247.86C674.822 248.148 673.478 248.34 671.654 248.436L671.942 251.508C676.358 251.508 682.694 251.22 688.742 251.22C697.19 251.22 704.486 251.508 707.078 251.508L707.462 248.436C704.966 248.34 703.814 248.148 701.03 247.764C699.398 247.572 698.822 246.708 698.726 244.788C698.534 242.388 698.342 238.26 698.342 229.044V205.812ZM740.202 208.884C724.362 208.884 715.626 218.1 715.626 231.252C715.626 243.444 723.21 252.564 739.53 252.564C754.41 252.564 764.01 244.308 764.01 230.484C764.01 216.564 754.026 208.884 740.202 208.884ZM739.818 212.148C742.026 212.148 743.466 213.396 744.426 215.7C745.77 218.388 746.826 224.148 746.826 231.54C746.826 237.972 746.346 242.484 745.098 245.748C744.33 247.956 742.794 249.3 740.586 249.3C738.282 249.3 736.554 248.052 735.402 245.268C733.962 241.908 733.098 236.436 733.098 229.044C733.098 222.996 733.962 217.812 735.114 215.508C736.074 213.588 737.322 212.148 739.818 212.148ZM824.249 205.812C824.249 200.82 824.345 196.596 824.441 194.196C831.161 194.004 833.177 195.156 834.617 197.652C835.865 199.764 837.881 203.604 839.033 210.708L842.009 209.844C841.625 200.052 842.777 191.508 842.873 190.068C838.265 190.932 831.641 190.932 820.697 190.932H810.521C801.497 190.932 793.625 190.644 790.169 190.068C789.881 194.196 789.113 205.14 788.153 210.9L791.033 211.38C792.281 207.54 793.625 203.124 796.025 198.996C798.041 195.444 799.577 194.196 806.777 194.196C806.873 196.404 806.873 200.628 806.873 206.388V229.236C806.873 238.74 806.681 242.004 806.489 245.172C806.393 247.092 805.241 247.572 803.129 247.86C800.729 248.148 799.385 248.34 797.561 248.436L797.849 251.508C802.265 251.508 808.601 251.22 814.649 251.22C823.097 251.22 830.393 251.508 832.985 251.508L833.369 248.436C830.873 248.34 829.721 248.148 826.937 247.764C825.305 247.572 824.729 246.708 824.633 244.788C824.441 242.388 824.249 238.26 824.249 229.044V205.812ZM866.108 208.884C850.268 208.884 841.532 218.1 841.532 231.252C841.532 243.444 849.116 252.564 865.436 252.564C880.316 252.564 889.916 244.308 889.916 230.484C889.916 216.564 879.932 208.884 866.108 208.884ZM865.724 212.148C867.932 212.148 869.372 213.396 870.332 215.7C871.676 218.388 872.732 224.148 872.732 231.54C872.732 237.972 872.252 242.484 871.004 245.748C870.236 247.956 868.7 249.3 866.492 249.3C864.188 249.3 862.46 248.052 861.308 245.268C859.868 241.908 859.004 236.436 859.004 229.044C859.004 222.996 859.868 217.812 861.02 215.508C861.98 213.588 863.228 212.148 865.724 212.148ZM892.442 272.916C894.746 272.82 900.41 272.436 908.858 272.436C916.25 272.436 921.434 272.724 923.162 272.724L923.546 269.556C917.018 269.46 916.538 268.788 916.346 266.292C916.058 262.356 916.058 258.804 916.058 250.836C917.69 251.796 921.05 252.564 924.218 252.564C938.81 252.564 947.066 244.788 947.066 228.468C947.066 222.804 945.338 217.236 942.65 213.972C940.25 210.996 936.698 208.884 931.418 208.884C924.506 208.884 919.802 212.436 916.346 215.412C916.25 213.588 916.058 210.996 915.866 208.98C909.818 210.132 901.274 210.516 895.034 210.612L894.554 213.588C899.066 213.588 899.738 214.164 899.834 215.988C899.93 217.62 900.026 220.692 900.026 227.988V248.724C900.026 257.46 899.738 262.932 899.546 266.676C899.354 268.788 898.49 269.364 892.922 269.844L892.442 272.916ZM922.298 248.916C920.186 248.916 918.17 247.476 916.922 245.268C916.346 244.404 916.25 243.54 916.25 242.196C916.25 234.42 916.154 228.66 916.346 222.708C916.442 221.268 916.826 220.308 917.498 219.252C918.938 217.14 920.762 215.604 923.258 215.604C925.466 215.604 927.098 216.948 928.154 219.06C929.306 221.556 930.17 225.684 930.17 230.58C930.17 239.604 928.346 248.916 922.298 248.916Z" fill="black"/>
</svg>
